<svg version="1.1" id="Layer_1" xmlns="http://www.w3.org/2000/svg" xmlns:xlink="http://www.w3.org/1999/xlink" x="0px" y="0px"
	 width="100%" viewBox="0 0 2350 1190" enable-background="new 0 0 2350 1190" xml:space="preserve">
<path fill="#E1E1E1" opacity="1.000000" stroke="none" 
	d="
M1028.108032,649.000000 
	C1028.108154,573.542053 1028.108154,498.584106 1028.108154,423.331604 
	C1059.704468,423.331604 1090.962891,423.331604 1123.287842,423.331604 
	C1123.287842,437.835419 1123.287842,452.531799 1123.287842,467.228180 
	C1123.796387,467.411041 1124.305054,467.593933 1124.813599,467.776794 
	C1126.099976,466.694641 1127.421021,465.650696 1128.667236,464.524109 
	C1137.068726,456.929413 1144.831177,448.445862 1153.981812,441.901886 
	C1170.277222,430.248444 1188.382446,421.981598 1207.978027,417.125977 
	C1226.510010,412.533844 1245.313354,411.068726 1264.256836,412.300690 
	C1285.382202,413.674530 1306.079224,417.421448 1324.892456,427.870575 
	C1343.818115,438.382141 1359.354492,452.709351 1371.538574,470.637177 
	C1372.463501,471.998108 1373.522095,473.268188 1374.447266,474.628906 
	C1375.265015,475.831573 1375.982910,477.101990 1377.194214,479.073761 
	C1379.854492,475.524506 1382.089111,472.393127 1384.475952,469.382355 
	C1403.123657,445.859833 1427.121094,430.060913 1455.340454,420.359497 
	C1479.355103,412.103607 1504.214844,410.985748 1529.191650,412.419281 
	C1546.584106,413.417542 1563.705566,417.473022 1579.538330,424.508392 
	C1598.736694,433.039429 1615.014526,446.036163 1627.694458,463.126465 
	C1642.093018,482.533356 1650.963623,504.300446 1655.618042,527.909851 
	C1657.884766,539.407043 1658.964844,550.956909 1658.980591,562.710083 
	C1659.108398,658.745972 1659.426025,754.781555 1659.685425,850.817261 
	C1659.689331,852.288147 1659.685791,853.758972 1659.685791,855.584473 
	C1623.430786,855.584473 1587.546997,855.584473 1551.102905,855.584473 
	C1551.102905,853.796997 1551.102905,852.021545 1551.102905,850.246094 
	C1551.102661,787.587952 1551.165039,724.929749 1551.069702,662.271790 
	C1551.034302,638.948914 1551.043213,615.612793 1550.264160,592.308350 
	C1549.634644,573.480713 1546.031738,555.085754 1534.964355,539.277588 
	C1520.590210,518.746155 1500.354370,509.732941 1475.401123,509.417389 
	C1437.661133,508.940125 1410.712280,531.234924 1401.966187,566.655701 
	C1400.002930,574.606567 1399.003784,582.959961 1398.828979,591.155090 
	C1398.413696,610.622192 1398.844482,630.105713 1398.779663,649.582092 
	C1398.552856,717.764282 1398.261841,785.946350 1397.982300,854.128357 
	C1397.980347,854.590820 1397.794678,855.052490 1397.650635,855.718262 
	C1361.669556,855.718262 1325.757324,855.718262 1289.266724,855.718262 
	C1289.266724,853.735229 1289.266724,851.960693 1289.266724,850.186218 
	C1289.265991,806.858826 1289.310059,763.531311 1289.251709,720.203979 
	C1289.194580,677.809937 1289.135986,635.415405 1288.866211,593.022400 
	C1288.760864,576.456482 1285.873413,560.350464 1277.643066,545.721680 
	C1265.326782,523.830261 1246.609985,511.637146 1221.398315,509.789398 
	C1204.178589,508.527344 1187.632080,510.675720 1172.794312,520.257019 
	C1155.331177,531.533569 1145.002197,547.917786 1140.777832,567.943115 
	C1138.817993,577.233765 1137.842529,586.895142 1137.786255,596.396545 
	C1137.511108,642.882690 1137.692505,689.371643 1137.720337,735.859558 
	C1137.729858,751.615112 1137.774414,767.370667 1137.781494,783.126221 
	C1137.792236,807.184998 1137.784302,831.243835 1137.784302,855.619507 
	C1100.651123,855.619507 1064.738403,855.619507 1028.107910,855.619507 
	C1028.107910,786.982544 1028.107910,718.241272 1028.108032,649.000000 
z"/>
<path fill="#E2E2E2" opacity="1.000000" stroke="none" 
	d="
M1977.883911,866.835144 
	C1964.285034,867.140869 1951.148926,867.804199 1938.024170,867.624756 
	C1919.951172,867.377686 1901.966187,864.947632 1884.875488,859.292969 
	C1868.764648,853.962463 1852.644043,847.790527 1837.834595,839.620117 
	C1819.736206,829.635193 1803.620972,816.415466 1789.786011,800.773193 
	C1777.182861,786.523682 1766.002930,771.284729 1757.841431,754.003967 
	C1749.522583,736.390320 1742.561035,718.282532 1738.462769,699.179504 
	C1733.683350,676.900818 1731.467896,654.313782 1732.467529,631.590576 
	C1733.112549,616.927124 1735.020508,602.281738 1737.060181,587.726074 
	C1739.973389,566.937256 1746.948975,547.361511 1755.999634,528.454468 
	C1765.310425,509.003876 1777.305908,491.464355 1792.061646,475.755615 
	C1802.449463,464.696899 1813.779297,454.742096 1826.432007,446.384888 
	C1847.275513,432.617615 1869.767212,422.748871 1894.207520,417.053986 
	C1922.294678,410.509338 1950.552856,410.344818 1979.224243,411.102448 
	C2028.190186,412.396362 2077.208496,411.737976 2126.204590,411.852356 
	C2163.193604,411.938721 2200.182373,411.951294 2237.171387,411.996490 
	C2238.298340,411.997864 2239.425537,411.996643 2240.775879,411.996643 
	C2240.775879,445.431488 2240.775879,478.500458 2240.775879,511.866089 
	C2207.173340,511.866089 2173.727539,511.866089 2139.354004,511.866089 
	C2141.709717,516.467896 2143.714844,520.501831 2145.822021,524.481689 
	C2157.784424,547.072937 2164.979492,571.306335 2168.406006,596.427307 
	C2170.716553,613.364685 2171.648926,630.651917 2171.338867,647.748962 
	C2170.799316,677.495728 2165.749756,706.639954 2154.640381,734.444763 
	C2146.722168,754.262207 2136.511963,772.829407 2123.202637,789.602783 
	C2110.580078,805.510559 2095.738525,819.207703 2079.380615,831.026672 
	C2070.641602,837.340759 2060.578125,841.924194 2050.833252,846.721802 
	C2030.118286,856.920288 2008.144165,863.026306 1985.232910,865.800964 
	C1982.931885,866.079651 1980.645142,866.475464 1977.883911,866.835144 
M2053.905762,667.437805 
	C2057.663330,634.782532 2056.550049,602.552246 2043.696899,571.771240 
	C2032.709595,545.458496 2014.905151,525.588135 1986.792114,517.057251 
	C1969.532593,511.819763 1951.706787,511.213348 1933.877441,513.471558 
	C1922.818604,514.872253 1912.001221,517.624207 1902.109253,522.983765 
	C1875.981812,537.139954 1861.763916,560.187073 1854.247925,588.037476 
	C1848.105957,610.796631 1847.214600,634.032959 1848.808105,657.398926 
	C1850.341553,679.884583 1855.852783,701.260315 1867.221558,720.958923 
	C1879.052856,741.458740 1895.867188,755.291687 1918.869141,761.880676 
	C1934.602417,766.387573 1950.439819,766.308350 1966.396362,765.018982 
	C1989.897583,763.120117 2010.135010,754.045898 2025.504883,735.822876 
	C2041.933838,716.344482 2050.324951,693.316284 2053.905762,667.437805 
z"/>
<path fill="#E1E1E1" opacity="1.000000" stroke="none" 
	d="
M643.750366,506.701904 
	C636.801758,506.708221 630.293152,506.708221 623.485046,506.708221 
	C623.485046,478.322052 623.485046,450.939026 623.485046,422.376007 
	C639.245544,422.376007 654.859680,422.374695 670.473877,422.376587 
	C677.805176,422.377472 685.141724,422.221497 692.465393,422.460175 
	C695.942871,422.573486 697.136292,421.457642 697.119995,417.959045 
	C697.004272,393.134186 697.017578,368.308594 697.037170,343.483307 
	C697.046997,330.996765 697.064331,318.508148 697.353271,306.026855 
	C697.384155,304.689972 699.252625,302.252930 700.279602,302.247070 
	C735.251953,302.048065 770.225586,302.081665 805.873840,302.081665 
	C805.873840,304.128296 805.873840,305.888336 805.873840,307.648346 
	C805.873962,331.977173 805.794617,356.306396 805.907227,380.634705 
	C805.965027,393.117981 806.520569,405.599548 806.525940,418.082031 
	C806.527771,422.345062 808.746399,422.414673 811.903564,422.427551 
	C850.462952,422.584991 889.022034,422.822144 927.581177,423.037537 
	C928.737244,423.044006 929.893433,423.038391 931.385315,423.038391 
	C931.385315,450.661102 931.385315,478.053070 931.385315,506.284851 
	C889.933838,506.284851 848.529968,506.284851 806.292297,506.284851 
	C806.292297,513.355286 806.343994,519.598389 806.279846,525.840210 
	C806.190002,534.574219 805.855713,543.308105 805.900330,552.040710 
	C806.158386,602.529053 806.433899,653.017517 806.851501,703.504700 
	C806.959900,716.612854 807.374573,729.706055 814.178345,741.634155 
	C822.090027,755.504578 834.139038,764.416626 849.423889,766.691162 
	C864.093323,768.874084 879.206238,768.581543 894.117859,768.476685 
	C906.537842,768.389221 918.948669,766.996887 931.614014,766.166138 
	C931.614014,795.859009 931.614014,825.601135 931.614014,856.103455 
	C921.929199,857.586060 912.380432,859.344910 902.757080,860.459961 
	C882.014526,862.863525 861.172607,864.615295 840.299683,863.476562 
	C811.608276,861.911072 783.399048,857.465698 757.721313,843.537048 
	C749.275818,838.955933 740.578247,833.856323 733.982971,827.064331 
	C722.373596,815.108521 713.058411,801.282837 707.025146,785.366760 
	C700.733154,768.768494 698.144104,751.727539 698.078003,734.090271 
	C697.886047,682.862122 697.473083,631.634705 697.236816,580.406677 
	C697.124695,556.105652 697.217590,531.803711 697.217590,506.695557 
	C679.278320,506.695557 661.734375,506.695557 643.750366,506.701904 
z"/>
<path fill="#E1E1E1" opacity="1.000000" stroke="none" 
	d="
M102.291550,714.999756 
	C102.291557,617.544250 102.291557,520.588684 102.291557,423.333557 
	C134.473770,423.333557 166.242462,423.333557 198.691025,423.333557 
	C198.691025,445.061798 198.691025,466.905426 198.691025,488.749023 
	C199.028137,489.010803 199.365265,489.272552 199.702377,489.534302 
	C236.994339,431.710205 292.334656,416.963623 356.641663,422.103699 
	C356.641663,456.201996 356.641663,489.441772 356.641663,522.951050 
	C348.475281,522.108948 340.360199,520.862854 332.205963,520.501892 
	C296.297821,518.912476 264.518188,528.839050 239.266617,555.439331 
	C228.530487,566.748901 222.021667,580.549438 217.514755,595.480469 
	C213.578400,608.521362 212.775970,621.892273 212.681503,635.230591 
	C212.358139,680.877869 212.572968,726.529175 212.639160,772.178833 
	C212.654510,782.765503 213.173843,793.357422 212.967117,803.937256 
	C212.631424,821.115784 211.887741,838.286316 211.309860,855.653320 
	C175.182907,855.653320 138.953781,855.653320 102.291550,855.653320 
	C102.291550,808.743103 102.291550,762.121460 102.291550,714.999756 
z"/>
<path fill="#E1E1E1" opacity="1.000000" stroke="none" 
	d="
M550.679565,433.051697 
	C550.679260,574.135010 550.679260,714.727234 550.679260,855.630493 
	C514.385620,855.630493 478.510162,855.630493 442.386536,855.630493 
	C442.386536,711.586487 442.386536,567.690918 442.386536,423.415405 
	C478.227631,423.415405 514.120789,423.415405 550.679932,423.415405 
	C550.679932,426.355408 550.679932,429.458008 550.679565,433.051697 
z"/>
<path fill="#E0E0E0" opacity="1.000000" stroke="none" 
	d="
M442.134888,335.999939 
	C442.135132,312.563416 442.135132,289.626923 442.135132,266.416870 
	C478.445801,266.416870 514.307007,266.416870 550.686401,266.416870 
	C550.686401,268.250153 550.686340,269.869232 550.686462,271.488342 
	C550.688477,299.460968 550.597168,327.434235 550.782471,355.405640 
	C550.814087,360.180359 549.409180,361.805145 544.521606,361.779480 
	C511.721313,361.607056 478.919617,361.694855 446.118378,361.698242 
	C444.987701,361.698364 443.856995,361.698242 442.134613,361.698242 
	C442.134613,353.028656 442.134613,344.764282 442.134888,335.999939 
z"/>
</svg>